<?xml version="1.0" encoding="UTF-8" standalone="no"?>
<!-- Created with Inkscape (http://www.inkscape.org/) -->

<svg
   width="1080"
   height="1080"
   viewBox="0 0 1080 1080"
   version="1.1"
   id="svg1"
   inkscape:version="1.3 (0e150ed6c4, 2023-07-21)"
   sodipodi:docname="drawing-1.svg"
   inkscape:export-filename="flop2.png"
   inkscape:export-xdpi="96"
   inkscape:export-ydpi="96"
   xmlns:inkscape="http://www.inkscape.org/namespaces/inkscape"
   xmlns:sodipodi="http://sodipodi.sourceforge.net/DTD/sodipodi-0.dtd"
   xmlns="http://www.w3.org/2000/svg"
   xmlns:svg="http://www.w3.org/2000/svg">
  <sodipodi:namedview
     id="namedview1"
     pagecolor="#ffffff"
     bordercolor="#488a32"
     borderopacity="0"
     inkscape:showpageshadow="0"
     inkscape:pageopacity="0"
     inkscape:pagecheckerboard="false"
     inkscape:deskcolor="#2b2b2b"
     inkscape:document-units="px"
     showborder="false"
     borderlayer="true"
     labelstyle="default"
     showguides="true"
     inkscape:lockguides="false"
     inkscape:zoom="1"
     inkscape:cx="475.5"
     inkscape:cy="637"
     inkscape:window-width="1920"
     inkscape:window-height="1051"
     inkscape:window-x="-9"
     inkscape:window-y="-9"
     inkscape:window-maximized="1"
     inkscape:current-layer="layer1" />
  <defs
     id="defs1" />
  <g
     inkscape:label="Layer 1"
     inkscape:groupmode="layer"
     id="layer1">
    <g
       id="path6" />
    <g
       id="path7" />
    <g
       id="path8" />
    <g
       id="path9" />
    <g
       id="path10" />
    <g
       id="path11" />
    <g
       id="path12" />
    <g
       id="path13" />
    <g
       id="path14" />
    <g
       id="path15" />
    <g
       id="path16" />
    <g
       id="path17" />
    <g
       id="path18" />
    <g
       id="path19" />
    <g
       id="path20"
       style="display:inline" />
    <path
       style="fill:#a32727;fill-opacity:1;stroke:none;stroke-width:44.9497;stroke-dasharray:none;stroke-opacity:1"
       d="m 145.512,491.55375 c 0.93151,5.64483 92.05637,73.71972 92.05637,73.71972 l 67.7255,-3.44478 8.08283,-87.6677 -103.31682,-24.82889 -60.97311,28.74607 z"
       id="path25" />
    <path
       style="fill:none;stroke:#000000;stroke-width:44.9497;stroke-dasharray:none;stroke-opacity:1"
       d="m 421.78092,520.48001 c 0,0 -86.93016,-58.2728 -192.21088,-71.5771 -105.28071,-13.30426 -117.83511,66.7876 -31.29212,91.48035 86.54301,24.69277 62.17595,48.81916 44.65344,98.80531 -17.52252,49.98614 59.44464,79.11874 93.58114,67.34252 34.1365,-11.77619 9.30176,71.98387 13.02783,94.56316 3.72607,22.57929 65.51485,37.81841 100.75346,-45.36386"
       id="path22" />
    <path
       style="fill:#a32727;fill-opacity:1;stroke:none;stroke-width:44.9497;stroke-dasharray:none;stroke-opacity:1"
       d="m 334.46561,577.74461 c 0,0 -81.06039,-22.70313 -178.51476,11.41885 -97.454342,34.122 -108.052163,126.07042 -27.77025,112.82218 80.28192,-13.24825 58.06711,23.92038 42.50119,85.76307 -15.56592,61.84271 55.92279,57.77694 87.32006,29.40154 31.39728,-28.37541 9.49743,73.16951 13.2235,95.7488 3.72607,22.57928 61.01469,10.5483 92.53578,-95.16145"
       id="path24" />
    <path
       style="fill:#f5bfbf;fill-opacity:1;stroke:none;stroke-width:44.9497;stroke-linecap:round;stroke-linejoin:round;stroke-dasharray:none;stroke-opacity:1"
       d="m 580.26301,677.83108 c 0,0 -13.04589,105.99787 48.9221,158.18144 61.96799,52.18356 75.01388,150.02775 6.52294,190.79618 -68.49093,40.7684 -242.97971,-9.7844 -278.85593,-234.82606 C 320.97592,566.94101 311.1915,418.544 355.2214,253.83962 399.25128,89.135241 596.57038,36.951658 727.0293,102.18113 857.4882,167.41058 943.91724,330.48422 970.00901,483.77345 996.1008,637.06266 803.67391,764.2601 689.52236,736.53759 575.37081,708.81508 501.98767,586.50984 501.98767,586.50984"
       id="path1" />
    <path
       style="fill:#ec8a8a;fill-opacity:1;stroke:none;stroke-width:44.9497;stroke-linecap:round;stroke-linejoin:round;stroke-dasharray:none;stroke-opacity:1"
       d="m 501.98767,586.50984 c 0,0 -100.17105,-113.71198 -164.43481,-251.18775 -22.75199,135.35263 -5.64036,267.54105 -5.64036,267.54105 l 34.30143,233.37272 57.30821,118.0054 c 0,0 65.49338,57.86864 65.49338,57.86864 0,0 146.69253,14.6988 146.69253,14.6988 l 42.00745,-54.11857 -8.39382,-83.68894 -55.31773,-68.5269 -33.74094,-142.64321 z"
       id="path4" />
    <circle
       style="fill:#ffffff;fill-opacity:1;stroke:#000000;stroke-width:44.9497;stroke-linecap:round;stroke-linejoin:round;stroke-dasharray:none;stroke-opacity:1"
       id="path2"
       cx="710.22064"
       cy="436.0816"
       r="116.46358" />
    <circle
       style="fill:#000000;fill-opacity:1;stroke:#000000;stroke-width:44.9497;stroke-linecap:round;stroke-linejoin:round;stroke-dasharray:none;stroke-opacity:1"
       id="path3"
       cx="749.50818"
       cy="436.0816"
       r="39.205585" />
    <path
       style="fill:#000000;fill-opacity:1;stroke:none;stroke-width:44.9497;stroke-linecap:round;stroke-linejoin:round;stroke-dasharray:none;stroke-opacity:1"
       d="m 596.97233,922.11524 c -2.3062,30.55728 -21.90898,47.85384 -69.76283,27.09796 -47.85384,-20.75588 -61.11455,-67.45664 -63.42076,-91.09527 -2.30621,-23.63865 23.63865,-56.50214 44.97109,-54.19593 21.33243,2.30621 24.79174,53.04281 42.66487,68.60973 17.87313,15.56692 45.54763,31.71038 45.54763,49.58351 z"
       id="path5" />
    <path
       style="fill:none;stroke:#000000;stroke-width:44.9497;stroke-dasharray:none;stroke-opacity:1"
       d="m 334.46561,577.74461 c 0,0 -81.06039,-22.70313 -178.51476,11.41885 -97.454342,34.122 -108.052163,126.07042 -27.77025,112.82218 80.28192,-13.24825 58.06711,23.92038 42.50119,85.76307 -15.56592,61.84271 55.92279,57.77694 87.32006,29.40154 31.39728,-28.37541 9.49743,73.16951 13.2235,95.7488 3.72607,22.57928 61.01469,10.5483 92.53578,-95.16145"
       id="path21" />
    <path
       style="fill:none;fill-opacity:1;stroke:#000000;stroke-width:44.9497;stroke-linecap:round;stroke-linejoin:round;stroke-dasharray:none;stroke-opacity:1"
       d="m 580.26301,677.83108 c 0,0 -13.04589,105.99787 48.9221,158.18144 61.96799,52.18356 75.01388,150.02775 6.52294,190.79618 -68.49093,40.7684 -242.97971,-9.7844 -278.85593,-234.82606 C 320.97592,566.94101 311.1915,418.544 355.2214,253.83962 399.25128,89.135241 596.57038,36.951658 727.0293,102.18113 857.4882,167.41058 943.91724,330.48422 970.00901,483.77345 996.1008,637.06266 803.67391,764.2601 689.52236,736.53759 575.37081,708.81508 501.98767,586.50984 501.98767,586.50984"
       id="path23" />
    <path
       style="color:#000000;fill:#ffffff;stroke-width:1.79799;stroke-linecap:round;stroke-linejoin:round;-inkscape-stroke:none"
       d="m 382.59464,583.73182 -79.38515,8.59442"
       id="path37" />
    <path
       style="color:#000000;fill:#ffffff;stroke-width:1.79799;stroke-linecap:round;stroke-linejoin:round;-inkscape-stroke:none"
       d="m 400.10781,741.49157 -76.92639,21.40742 c -11.95727,3.32724 -18.95385,15.71718 -15.62791,27.67481 3.32744,11.95876 15.7197,18.95552 27.67826,15.62733 l 76.92698,-21.40395 c 11.95878,-3.32745 18.95551,-15.71971 15.62734,-27.67828 -3.32744,-11.95877 -15.71972,-18.95552 -27.67828,-15.62733 z"
       id="path36" />
    <path
       style="color:#000000;fill:#ffffff;stroke-width:1.79799;stroke-linecap:round;stroke-linejoin:round;-inkscape-stroke:none"
       d="m 370.69921,528.13488 -79.70965,-4.71573"
       id="path35" />
    <path
       style="color:#000000;fill:#ffffff;stroke-width:1.79799;stroke-linecap:round;stroke-linejoin:round;-inkscape-stroke:none"
       d="m 303.58762,696.20121 c -12.34538,1.29388 -21.30417,12.35102 -20.00965,24.69631 1.29566,12.34375 12.35189,21.30047 24.69577,20.00617 l 79.41278,-8.32483 c 12.34538,-1.29388 21.30417,-12.35101 20.00962,-24.69632 -1.29565,-12.34374 -12.35186,-21.30045 -24.69576,-20.00617 z"
       id="path34" />
    <path
       style="color:#000000;fill:#ffffff;stroke-width:1.79799;stroke-linecap:round;stroke-linejoin:round;-inkscape-stroke:none"
       d="m 361.57983,454.50614 -79.27008,-9.5981"
       id="path33" />
    <path
       style="color:#000000;fill:#ffffff;stroke-width:1.79799;stroke-linecap:round;stroke-linejoin:round;-inkscape-stroke:none"
       d="m 283.61689,620.04971 c -12.40084,0.53394 -22.02092,11.01952 -21.48725,23.42038 0.53393,12.40085 11.01954,22.02095 23.42039,21.48725 l 79.77443,-3.43723 c 12.40084,-0.53394 22.02093,-11.01953 21.48724,-23.42038 -0.53394,-12.40084 -11.01952,-22.02094 -23.42038,-21.48725 z"
       id="path32" />
    <path
       style="color:#000000;fill:#ffffff;stroke-width:1.79799;stroke-linecap:round;stroke-linejoin:round;-inkscape-stroke:none"
       d="m 402.50187,221.60297 -73.7641,-30.5733"
       id="path31" />
    <path
       style="color:#000000;fill:#ffffff;stroke-width:1.79799;stroke-linecap:round;stroke-linejoin:round;-inkscape-stroke:none"
       d="m 320.14112,170.26264 c -5.50699,2.28026 -9.88267,6.65468 -12.16451,12.16101 -4.75308,11.46703 0.69015,24.616 12.1575,29.36834 l 73.76321,30.57283 c 11.46703,4.75305 24.61598,-0.69016 29.36832,-12.1575 4.75072,-11.46607 -0.6921,-24.61248 -12.1575,-29.36482 l -73.76672,-30.57635 c -5.50614,-2.28189 -11.6932,-2.28318 -17.2003,-0.004 z"
       id="path30" />
    <path
       style="color:#000000;fill:#ffffff;stroke-width:1.79799;stroke-linecap:round;stroke-linejoin:round;-inkscape-stroke:none"
       d="M 499.18157,140.60856 449.24342,78.302481"
       id="path29" />
    <path
       style="color:#000000;fill:#ffffff;stroke-width:1.79799;stroke-linecap:round;stroke-linejoin:round;-inkscape-stroke:none"
       d="m 451.70338,55.963903 c -5.92391,-0.652886 -11.86459,1.073867 -16.51553,4.800487 -9.68623,7.76334 -11.24437,21.909291 -3.48008,31.594754 l 49.93633,62.304536 c 7.76228,9.68735 21.90836,11.24709 31.59476,3.4836 9.68623,-7.76332 11.24439,-21.90929 3.4801,-31.59475 L 466.7791,64.247995 c -3.72784,-4.651309 -9.15076,-7.631189 -15.07572,-8.284092 z"
       id="path28" />
    <path
       style="color:#000000;fill:#ffffff;stroke-width:1.79799;stroke-linecap:round;stroke-linejoin:round;-inkscape-stroke:none"
       d="M 617.1879,119.3627 610.28844,39.812313"
       id="path27" />
    <path
       style="color:#000000;fill:#ffffff;stroke-width:1.79799;stroke-linecap:round;stroke-linejoin:round;-inkscape-stroke:none"
       d="m 608.34616,17.423013 c -12.3659,1.072645 -21.52099,11.966626 -20.4486,24.332549 l 6.90048,79.550488 c 1.07265,12.36593 11.96661,21.52102 24.33255,20.44862 12.36593,-1.07264 21.52102,-11.9666 20.44862,-24.33254 L 632.67873,37.871635 C 631.6061,25.505712 620.7121,16.35062 608.34616,17.423013 Z"
       id="path26" />
    <ellipse
       style="fill:#ffffff;fill-opacity:1;stroke:#000000;stroke-width:44.9497;stroke-linecap:round;stroke-linejoin:round;stroke-dasharray:none;stroke-opacity:1"
       id="circle2"
       cx="642.69958"
       cy="742.28638"
       rx="60.383377"
       ry="122.35136"
       transform="rotate(-29.40616)" />
    <circle
       style="fill:#000000;fill-opacity:1;stroke:#000000;stroke-width:32.3904;stroke-linecap:round;stroke-linejoin:round;stroke-dasharray:none;stroke-opacity:1"
       id="circle3"
       cx="955.8999"
       cy="340.99469"
       r="28.251181" />
  </g>
</svg>
