<?xml version="1.0" encoding="UTF-8" standalone="no"?>
<!-- Created with Inkscape (http://www.inkscape.org/) -->

<svg
   width="408"
   height="2240"
   viewBox="0 0 408 2240"
   version="1.1"
   id="svg1"
   inkscape:version="1.3 (0e150ed6c4, 2023-07-21)"
   sodipodi:docname="tube.svg"
   inkscape:export-filename="tube1.png"
   inkscape:export-xdpi="96"
   inkscape:export-ydpi="96"
   xmlns:inkscape="http://www.inkscape.org/namespaces/inkscape"
   xmlns:sodipodi="http://sodipodi.sourceforge.net/DTD/sodipodi-0.dtd"
   xmlns="http://www.w3.org/2000/svg"
   xmlns:svg="http://www.w3.org/2000/svg">
  <sodipodi:namedview
     id="namedview1"
     pagecolor="#ffffff"
     bordercolor="#000000"
     borderopacity="0"
     inkscape:showpageshadow="2"
     inkscape:pageopacity="0.0"
     inkscape:pagecheckerboard="0"
     inkscape:deskcolor="#2e2e2e"
     inkscape:document-units="px"
     inkscape:zoom="0.27433124"
     inkscape:cx="109.35685"
     inkscape:cy="1071.6971"
     inkscape:window-width="1920"
     inkscape:window-height="1051"
     inkscape:window-x="-9"
     inkscape:window-y="-9"
     inkscape:window-maximized="1"
     inkscape:current-layer="layer1" />
  <defs
     id="defs1" />
  <g
     inkscape:label="Layer 1"
     inkscape:groupmode="layer"
     id="layer1">
    <path
       style="fill:#656565;stroke:#000000;stroke-width:16;stroke-linecap:square;stroke-linejoin:bevel;stroke-dasharray:none"
       d="M 203.84261,-27.339212 V 11.2375"
       id="path3" />
    <path
       style="fill:#656565;stroke:#000000;stroke-width:16;stroke-linecap:square;stroke-linejoin:bevel;stroke-dasharray:none"
       d="m 203.84261,2228.7625 v 26.2669"
       id="path7" />
    <path
       id="path28"
       style="fill:#e3e6a8;fill-opacity:1;stroke:#000000;stroke-width:16;stroke-dasharray:none"
       d="m 203.84261,839.3301 c -106.372082,0 -192.604899,-13.0164 -192.60511,-29.0722 v -769.95 c -1e-5,-16.0558 86.232878,-29.0704 192.60511,-29.0704 106.37223,0 192.60512,13.0146 192.60511,29.0704 v 769.95 c -2.1e-4,16.0558 -86.23303,29.0722 -192.60511,29.0722 z" />
    <path
       style="fill:#979792;fill-opacity:1;stroke:none;stroke-width:10.4512;stroke-linecap:round;stroke-linejoin:round;stroke-dasharray:none;stroke-opacity:1"
       d="m 19.254728,666.5631 89.599732,-16.9695 135.13174,-3.1432 118.91625,17.284 33.5443,11.1553 V 445.9725 L 312.65607,432.8139 160.71829,428.4646 53.444778,438.642 11.238464,456.8047 Z"
       id="path29"
       sodipodi:nodetypes="ccccccccccc" />
    <ellipse
       style="fill:#656565;fill-opacity:1;stroke:#000000;stroke-width:16;stroke-dasharray:none;stroke-opacity:1"
       id="ellipse29"
       cx="203.84262"
       cy="-779.01923"
       rx="132.30975"
       ry="24.310635"
       transform="scale(1,-1)" />
    <path
       style="fill:none;stroke:#000000;stroke-width:16;stroke-dasharray:none"
       d="m 11.238464,674.8897 c -1.1e-5,-16.0558 86.231804,-29.0716 192.604146,-29.0716 106.37234,0 192.60415,13.0158 192.60414,29.0716"
       id="path30" />
    <path
       style="fill:none;stroke:#000000;stroke-width:16;stroke-dasharray:none"
       d="m 11.238464,456.8047 c -1.1e-5,-16.0557 86.231804,-29.0716 192.604146,-29.0716 106.37234,0 192.60415,13.0159 192.60414,29.0716"
       id="path31" />
    <path
       style="fill:none;stroke:#000000;stroke-width:16;stroke-linecap:round;stroke-linejoin:round;stroke-dasharray:none"
       d="m 56.066358,522.78916 c -1e-5,-12.3189 66.161672,-22.3053 147.776252,-22.3053 81.61458,0 147.77626,9.9864 147.77625,22.3053"
       id="path32" />
    <path
       style="fill:none;stroke:#000000;stroke-width:16;stroke-linecap:round;stroke-linejoin:round;stroke-dasharray:none"
       d="m 56.066358,595.45628 c -1e-5,-12.3189 66.161672,-22.3053 147.776252,-22.3053 81.61458,0 147.77626,9.9864 147.77625,22.3053"
       id="path33" />
    <path
       style="fill:none;fill-opacity:1;stroke:#000000;stroke-width:16;stroke-linecap:round;stroke-linejoin:round;stroke-dasharray:none;stroke-opacity:1"
       d="M 11.238464,342.6021 V 674.8897"
       id="path34" />
    <path
       style="fill:none;fill-opacity:1;stroke:#000000;stroke-width:16;stroke-linecap:round;stroke-linejoin:round;stroke-dasharray:none;stroke-opacity:1"
       d="M 396.44675,810.2582 V 342.6021"
       id="path35" />
    <path
       id="path1"
       style="fill:#e3e6a8;fill-opacity:1;stroke:#000000;stroke-width:16;stroke-dasharray:none"
       d="m 203.84261,1400.6699 c 106.37208,0 192.6049,13.0164 192.60511,29.0722 v 769.95 c 10e-6,16.0558 -86.23288,29.0704 -192.60511,29.0704 -106.37223,0 -192.60512,-13.0146 -192.60511,-29.0704 v -769.95 c 2.1e-4,-16.0559 86.23303,-29.0722 192.60511,-29.0722 z" />
    <path
       style="fill:#979792;fill-opacity:1;stroke:none;stroke-width:10.4512;stroke-linecap:round;stroke-linejoin:round;stroke-dasharray:none;stroke-opacity:1"
       d="m 388.43049,1573.4369 -89.59973,16.9695 -135.13174,3.1432 -118.91625,-17.284 -33.5443,-11.1553 v 228.9172 l 83.79068,13.1586 151.93778,4.3493 107.27351,-10.1774 42.20632,-18.1627 z"
       id="path2"
       sodipodi:nodetypes="ccccccccccc" />
    <ellipse
       style="fill:#656565;fill-opacity:1;stroke:#000000;stroke-width:16;stroke-dasharray:none;stroke-opacity:1"
       id="ellipse2"
       cx="-203.84261"
       cy="1460.9807"
       rx="132.30975"
       ry="24.310635"
       transform="scale(-1,1)" />
    <path
       style="fill:none;stroke:#000000;stroke-width:16;stroke-dasharray:none"
       d="m 396.44676,1565.1103 c 1e-5,16.0558 -86.23181,29.0716 -192.60415,29.0716 -106.37234,0 -192.60415,-13.0158 -192.60414,-29.0716"
       id="path4" />
    <path
       style="fill:none;stroke:#000000;stroke-width:16;stroke-dasharray:none"
       d="m 396.44676,1783.1953 c 1e-5,16.0557 -86.23181,29.0716 -192.60415,29.0716 -106.37234,0 -192.60415,-13.0159 -192.60414,-29.0716"
       id="path5" />
    <path
       style="fill:none;stroke:#000000;stroke-width:16;stroke-linecap:round;stroke-linejoin:round;stroke-dasharray:none"
       d="m 351.61886,1717.2108 c 1e-5,12.3189 -66.16167,22.3053 -147.77625,22.3053 -81.61458,0 -147.77626,-9.9864 -147.77625,-22.3053"
       id="path6" />
    <path
       style="fill:none;stroke:#000000;stroke-width:16;stroke-linecap:round;stroke-linejoin:round;stroke-dasharray:none"
       d="m 351.61886,1644.5437 c 1e-5,12.3189 -66.16167,22.3053 -147.77625,22.3053 -81.61458,0 -147.77626,-9.9864 -147.77625,-22.3053"
       id="path8" />
    <path
       style="fill:none;fill-opacity:1;stroke:#000000;stroke-width:16;stroke-linecap:round;stroke-linejoin:round;stroke-dasharray:none;stroke-opacity:1"
       d="M 396.44676,1897.3979 V 1565.1103"
       id="path9" />
    <path
       style="fill:none;fill-opacity:1;stroke:#000000;stroke-width:16;stroke-linecap:round;stroke-linejoin:round;stroke-dasharray:none;stroke-opacity:1"
       d="m 11.23847,1429.7418 v 467.6561"
       id="path10" />
    <path
       id="path12"
       style="fill:#e3e6a8;fill-opacity:1;stroke:#000000;stroke-width:16;stroke-dasharray:none"
       d="m -336.1574,1400.6699 c -106.37208,0 -192.60489,13.0164 -192.60511,29.0722 v 769.95 c -10e-6,16.0558 86.23288,29.0704 192.60511,29.0704 106.37223,0 192.6051,-13.0146 192.6051,-29.0704 v -769.95 c -2e-4,-16.0558 -86.23302,-29.0722 -192.6051,-29.0722 z" />
    <path
       style="fill:#979792;fill-opacity:1;stroke:none;stroke-width:10.4512;stroke-linecap:round;stroke-linejoin:round;stroke-dasharray:none;stroke-opacity:1"
       d="m -520.74528,1573.4369 89.59973,16.9695 135.13174,3.1432 118.91625,-17.284 33.54426,-11.1553 v 200.9172 l -83.79064,13.1586 -151.93778,4.3493 -107.27351,-10.1774 -42.20631,-18.1627 z"
       id="path13"
       sodipodi:nodetypes="ccccccccccc" />
    <ellipse
       style="fill:#656565;fill-opacity:1;stroke:#000000;stroke-width:16;stroke-dasharray:none;stroke-opacity:1"
       id="ellipse13"
       cx="-336.15741"
       cy="1460.9807"
       rx="132.30975"
       ry="24.310635" />
    <path
       style="fill:none;stroke:#000000;stroke-width:16;stroke-dasharray:none"
       d="m -528.76154,1565.1103 c -1e-5,16.0558 86.2318,29.0716 192.60414,29.0716 106.37234,0 192.6041,-13.0158 192.6041,-29.0716"
       id="path14" />
    <path
       style="fill:none;stroke:#000000;stroke-width:16;stroke-dasharray:none"
       d="m -528.76154,1755.1953 c -1e-5,16.0557 86.2318,29.0716 192.60414,29.0716 106.37234,0 192.6041,-13.0159 192.6041,-29.0716"
       id="path15" />
    <path
       style="fill:none;stroke:#000000;stroke-width:16;stroke-linecap:round;stroke-linejoin:round;stroke-dasharray:none"
       d="m -483.93365,1698.5442 c -10e-6,12.3189 66.16167,22.3053 147.77625,22.3053 81.61458,0 147.77626,-9.9864 147.77625,-22.3053"
       id="path16" />
    <path
       style="fill:none;stroke:#000000;stroke-width:16;stroke-linecap:round;stroke-linejoin:round;stroke-dasharray:none"
       d="m -483.93365,1635.2104 c -10e-6,12.3189 66.16167,22.3053 147.77625,22.3053 81.61458,0 147.77626,-9.9864 147.77625,-22.3053"
       id="path17" />
    <path
       style="fill:none;fill-opacity:1;stroke:#000000;stroke-width:16;stroke-linecap:round;stroke-linejoin:round;stroke-dasharray:none;stroke-opacity:1"
       d="M -528.76154,1897.3979 V 1565.1103"
       id="path18" />
    <path
       style="fill:none;fill-opacity:1;stroke:#000000;stroke-width:16;stroke-linecap:round;stroke-linejoin:round;stroke-dasharray:none;stroke-opacity:1"
       d="m -143.5533,1429.7418 v 467.6561"
       id="path19" />
    <path
       id="path36"
       style="fill:#e3e6a8;fill-opacity:1;stroke:#000000;stroke-width:16;stroke-dasharray:none"
       d="m -336.1574,839.3301 c -106.37208,0 -192.60489,-13.0164 -192.60511,-29.0722 v -769.95 c -10e-6,-16.0558 86.23288,-29.0704 192.60511,-29.0704 106.37223,0 192.6051,13.0146 192.6051,29.0704 v 769.95 c -2e-4,16.0558 -86.23302,29.0722 -192.6051,29.0722 z" />
    <path
       style="fill:#979792;fill-opacity:1;stroke:none;stroke-width:10.4512;stroke-linecap:round;stroke-linejoin:round;stroke-dasharray:none;stroke-opacity:1"
       d="m -520.74528,666.5631 89.59973,-16.9695 135.13174,-3.1432 118.91625,17.284 33.54426,11.1553 V 473.9725 l -83.79064,-13.1586 -151.93778,-4.3493 -107.27351,10.1774 -42.20631,18.1627 z"
       id="path37"
       sodipodi:nodetypes="ccccccccccc" />
    <ellipse
       style="fill:#656565;fill-opacity:1;stroke:#000000;stroke-width:16;stroke-dasharray:none;stroke-opacity:1"
       id="ellipse37"
       cx="-336.15741"
       cy="-779.01929"
       rx="132.30975"
       ry="24.310635"
       transform="scale(1,-1)" />
    <path
       style="fill:none;stroke:#000000;stroke-width:16;stroke-dasharray:none"
       d="m -528.76154,674.8897 c -1e-5,-16.0558 86.2318,-29.0716 192.60414,-29.0716 106.37234,0 192.6041,13.0158 192.6041,29.0716"
       id="path38" />
    <path
       style="fill:none;stroke:#000000;stroke-width:16;stroke-dasharray:none"
       d="m -528.76154,484.8047 c -1e-5,-16.0557 86.2318,-29.0716 192.60414,-29.0716 106.37234,0 192.6041,13.0159 192.6041,29.0716"
       id="path39" />
    <path
       style="fill:none;stroke:#000000;stroke-width:16;stroke-linecap:round;stroke-linejoin:round;stroke-dasharray:none"
       d="m -483.93365,541.45582 c -10e-6,-12.3189 66.16167,-22.3053 147.77625,-22.3053 81.61458,0 147.77626,9.9864 147.77625,22.3053"
       id="path40" />
    <path
       style="fill:none;stroke:#000000;stroke-width:16;stroke-linecap:round;stroke-linejoin:round;stroke-dasharray:none"
       d="m -483.93365,604.78961 c -10e-6,-12.3189 66.16167,-22.3053 147.77625,-22.3053 81.61458,0 147.77626,9.9864 147.77625,22.3053"
       id="path41" />
    <path
       style="fill:none;fill-opacity:1;stroke:#000000;stroke-width:16;stroke-linecap:round;stroke-linejoin:round;stroke-dasharray:none;stroke-opacity:1"
       d="M -528.76154,342.6021 V 674.8897"
       id="path42" />
    <path
       style="fill:none;fill-opacity:1;stroke:#000000;stroke-width:16;stroke-linecap:round;stroke-linejoin:round;stroke-dasharray:none;stroke-opacity:1"
       d="M -143.5533,810.2582 V 342.6021"
       id="path43" />
    <path
       id="path20"
       style="fill:#e3e6a8;fill-opacity:1;stroke:#000000;stroke-width:16;stroke-dasharray:none"
       d="m 743.8426,1400.6699 c -106.3721,0 -192.6049,13.0164 -192.6051,29.0722 v 769.95 c 0,16.0558 86.2329,29.0704 192.6051,29.0704 106.3722,0 192.6051,-13.0146 192.6051,-29.0704 v -769.95 c -2e-4,-16.0558 -86.233,-29.0722 -192.6051,-29.0722 z" />
    <path
       style="fill:#979792;fill-opacity:1;stroke:none;stroke-width:10.4512;stroke-linecap:round;stroke-linejoin:round;stroke-dasharray:none;stroke-opacity:1"
       d="m 559.2547,1573.4369 89.5997,16.9695 135.1318,3.1432 118.9162,-17.284 33.5443,-11.1553 v 140.9172 l -83.7906,13.1586 -151.9378,4.3493 -107.2735,-10.1774 -42.2063,-18.1627 z"
       id="path21"
       sodipodi:nodetypes="ccccccccccc" />
    <ellipse
       style="fill:#656565;fill-opacity:1;stroke:#000000;stroke-width:16;stroke-dasharray:none;stroke-opacity:1"
       id="ellipse21"
       cx="743.84259"
       cy="1460.9807"
       rx="132.30975"
       ry="24.310635" />
    <path
       style="fill:none;stroke:#000000;stroke-width:16;stroke-dasharray:none"
       d="m 551.2385,1565.1103 c -1e-4,16.0558 86.2318,29.0716 192.6041,29.0716 106.3723,0 192.6041,-13.0158 192.6041,-29.0716"
       id="path22" />
    <path
       style="fill:none;stroke:#000000;stroke-width:16;stroke-dasharray:none"
       d="m 551.2385,1695.1953 c -1e-4,16.0557 86.2318,29.0716 192.6041,29.0716 106.3723,0 192.6041,-13.0159 192.6041,-29.0716"
       id="path23" />
    <path
       style="fill:none;stroke:#000000;stroke-width:16;stroke-linecap:round;stroke-linejoin:round;stroke-dasharray:none"
       d="m 596.0663,1659.2761 c 0,12.3189 66.1617,22.3053 147.7763,22.3053 81.6146,0 147.7763,-9.9864 147.7762,-22.3053"
       id="path24" />
    <path
       style="fill:none;stroke:#000000;stroke-width:16;stroke-linecap:round;stroke-linejoin:round;stroke-dasharray:none"
       d="m 596.0663,1615.5763 c 0,12.3189 66.1617,22.3053 147.7763,22.3053 81.6146,0 147.7763,-9.9864 147.7762,-22.3053"
       id="path25" />
    <path
       style="fill:none;fill-opacity:1;stroke:#000000;stroke-width:16;stroke-linecap:round;stroke-linejoin:round;stroke-dasharray:none;stroke-opacity:1"
       d="M 551.2385,1897.3979 V 1565.1103"
       id="path26" />
    <path
       style="fill:none;fill-opacity:1;stroke:#000000;stroke-width:16;stroke-linecap:round;stroke-linejoin:round;stroke-dasharray:none;stroke-opacity:1"
       d="m 936.4467,1429.7418 v 467.6561"
       id="path27" />
    <path
       id="path44"
       style="fill:#e3e6a8;fill-opacity:1;stroke:#000000;stroke-width:16;stroke-dasharray:none"
       d="m 743.8426,839.3301 c -106.3721,0 -192.6049,-13.0164 -192.6051,-29.0722 v -769.95 c 0,-16.0558 86.2329,-29.0704 192.6051,-29.0704 106.3722,0 192.6051,13.0146 192.6051,29.0704 v 769.95 c -2e-4,16.0558 -86.233,29.0722 -192.6051,29.0722 z" />
    <path
       style="fill:#979792;fill-opacity:1;stroke:none;stroke-width:10.4512;stroke-linecap:round;stroke-linejoin:round;stroke-dasharray:none;stroke-opacity:1"
       d="m 559.2547,666.5631 89.5997,-16.9695 135.1318,-3.1432 118.9162,17.284 33.5443,11.1553 V 533.9725 l -83.7906,-13.1586 -151.9378,-4.3493 -107.2735,10.1774 -42.2063,18.1627 z"
       id="path45"
       sodipodi:nodetypes="ccccccccccc" />
    <ellipse
       style="fill:#656565;fill-opacity:1;stroke:#000000;stroke-width:16;stroke-dasharray:none;stroke-opacity:1"
       id="ellipse45"
       cx="743.84259"
       cy="-779.01929"
       rx="132.30975"
       ry="24.310635"
       transform="scale(1,-1)" />
    <path
       style="fill:none;stroke:#000000;stroke-width:16;stroke-dasharray:none"
       d="m 551.2385,674.8897 c -1e-4,-16.0558 86.2318,-29.0716 192.6041,-29.0716 106.3723,0 192.6041,13.0158 192.6041,29.0716"
       id="path46" />
    <path
       style="fill:none;stroke:#000000;stroke-width:16;stroke-dasharray:none"
       d="m 551.2385,544.8047 c -1e-4,-16.0557 86.2318,-29.0716 192.6041,-29.0716 106.3723,0 192.6041,13.0159 192.6041,29.0716"
       id="path47" />
    <path
       style="fill:none;stroke:#000000;stroke-width:16;stroke-linecap:round;stroke-linejoin:round;stroke-dasharray:none"
       d="m 596.0663,580.7239 c 0,-12.3189 66.1617,-22.3053 147.7763,-22.3053 81.6146,0 147.7763,9.9864 147.7762,22.3053"
       id="path48" />
    <path
       style="fill:none;stroke:#000000;stroke-width:16;stroke-linecap:round;stroke-linejoin:round;stroke-dasharray:none"
       d="m 596.0663,624.4237 c 0,-12.3189 66.1617,-22.3053 147.7763,-22.3053 81.6146,0 147.7763,9.9864 147.7762,22.3053"
       id="path49" />
    <path
       style="fill:none;fill-opacity:1;stroke:#000000;stroke-width:16;stroke-linecap:round;stroke-linejoin:round;stroke-dasharray:none;stroke-opacity:1"
       d="M 551.2385,342.6021 V 674.8897"
       id="path50" />
    <path
       style="fill:none;fill-opacity:1;stroke:#000000;stroke-width:16;stroke-linecap:round;stroke-linejoin:round;stroke-dasharray:none;stroke-opacity:1"
       d="M 936.4467,810.2582 V 342.6021"
       id="path51" />
  </g>
</svg>
